<svg version="1.2" baseProfile="tiny-ps" xmlns="http://www.w3.org/2000/svg" viewBox="0 0 640 512" width="640" height="512">
	<title>bed-svg</title>
	<style>
		tspan { white-space:pre }
		.shp0 { fill: #ffffff } 
	</style>
	<path id="Layer" fill-rule="evenodd" class="shp0" d="M640 240L640 432C640 440.84 632.84 448 624 448L592 448C583.16 448 576 440.84 576 432L576 384L64 384L64 432C64 440.84 56.84 448 48 448L16 448C7.16 448 0 440.84 0 432L0 80C0 71.16 7.16 64 16 64L48 64C56.84 64 64 71.16 64 80L64 288L288 288L288 144C288 135.16 295.16 128 304 128L528 128C589.86 128 640 178.14 640 240ZM96 176C96 131.89 131.89 96 176 96C220.11 96 256 131.89 256 176C256 220.11 220.11 256 176 256C131.89 256 96 220.11 96 176Z" />
</svg>