<svg version="1.2" baseProfile="tiny-ps" xmlns="http://www.w3.org/2000/svg" viewBox="0 0 496 512" width="496" height="512">
	<title>globe-svg</title>
	<style>
		tspan { white-space:pre }
		.shp0 { fill: #ffffff } 
	</style>
	<path id="Layer" fill-rule="evenodd" class="shp0" d="M496 256C496 392.97 384.97 504 248 504C111.03 504 0 392.97 0 256C0 119.03 111.03 8 248 8C384.97 8 496 119.03 496 256ZM330.29 365.6C332.46 363.44 334.41 361.08 336.11 358.54C337.82 356 339.27 353.3 340.44 350.48C341.61 347.66 342.51 344.72 343.11 341.73C343.71 338.73 344.01 335.68 344.01 332.62C344.01 330.62 343.81 328.63 343.42 326.67C343.04 324.71 342.45 322.79 341.69 320.95C340.93 319.1 339.98 317.33 338.87 315.67C337.76 314.01 336.49 312.46 335.08 311.05L321.39 297.36C315.38 291.36 307.25 287.99 298.76 287.99L232.01 287.99C222.6 283.28 210.53 255.99 200.01 255.99C189.49 255.99 179.11 253.54 169.7 248.83L158.62 243.29C154.57 241.26 152.01 237.13 152.01 232.6C152.01 231.35 152.2 230.11 152.59 228.93C152.97 227.74 153.54 226.62 154.26 225.61C154.99 224.6 155.88 223.71 156.88 222.97C157.88 222.23 159 221.65 160.18 221.26L191.35 210.87C192.66 210.43 194.03 210.17 195.41 210.08C196.79 210 198.18 210.09 199.54 210.36C200.89 210.63 202.21 211.08 203.45 211.69C204.7 212.3 205.85 213.06 206.9 213.97L216.18 222.03C217.63 223.29 219.49 223.99 221.42 223.99L227.06 223.99C233 223.99 236.87 217.73 234.21 212.41L218.62 181.22C218.24 180.47 217.99 179.66 217.87 178.82C217.74 177.99 217.75 177.14 217.89 176.31C218.03 175.48 218.3 174.67 218.7 173.93C219.09 173.18 219.6 172.5 220.2 171.91L230.12 162.26C231.62 160.8 233.62 159.99 235.7 159.99L244.69 159.99C245.21 159.99 245.74 159.94 246.25 159.84C246.77 159.73 247.27 159.58 247.75 159.38C248.24 159.18 248.7 158.93 249.14 158.64C249.57 158.35 249.98 158.02 250.35 157.65L258.35 149.65C261.47 146.53 261.47 141.46 258.35 138.34L253.66 133.65C250.54 130.53 250.54 125.46 253.66 122.34L264 112L268.69 107.32C274.94 101.07 274.94 90.94 268.69 84.69L240.39 56.39C232.12 56.7 223.99 57.52 216 58.81L216 70.11C216 82.01 203.48 89.74 192.84 84.42L168.83 72.41C122.99 92.26 86.1 128.8 65.63 174.3C75.56 189.02 90.84 211.67 100.22 225.44C101.51 227.34 102.86 229.2 104.26 231.02C105.66 232.84 107.12 234.62 108.63 236.35C110.14 238.09 111.7 239.77 113.31 241.41C114.92 243.05 116.57 244.64 118.28 246.18L119.08 246.9C128.63 255.51 139.25 262.87 150.73 268.65C164.73 275.7 185.17 286.81 199.54 294.76C209.73 300.39 216 311.09 216 322.73L216 354.74C216 363.23 219.37 371.37 225.37 377.37C240.36 392.36 249.69 416 248 428.62L248 456C262.65 456 276.89 454.31 290.65 451.31L308.04 404.46C310.08 398.97 311.3 393.25 312.81 387.59C313.88 383.58 315.99 379.88 318.98 376.88C322.3 373.55 326.39 369.48 330.29 365.6ZM446.18 281.54C447.26 273.16 448 264.67 448 256C448 223.87 440.2 193.59 426.68 166.67L413.7 173.16C409.96 175.02 406.78 177.84 404.46 181.31L384.87 210.69C383.56 212.65 382.55 214.79 381.87 217.05C381.18 219.3 380.84 221.64 380.84 224C380.84 226.36 381.18 228.7 381.87 230.95C382.55 233.21 383.56 235.35 384.87 237.31L402.85 264.28C406.16 269.25 411.21 272.8 417 274.25L446.18 281.54Z" />
</svg>