<svg version="1.2" baseProfile="tiny-ps" xmlns="http://www.w3.org/2000/svg" viewBox="0 0 640 512" width="640" height="512">
	<title>plane-svg</title>
	<style>
		tspan { white-space:pre }
		.shp0 { fill: #ffffff } 
	</style>
	<path id="Layer" class="shp0" d="M624 448L16 448C7.16 448 0 455.16 0 464L0 496C0 504.84 7.16 512 16 512L624 512C632.84 512 640 504.84 640 496L640 464C640 455.16 632.84 448 624 448ZM80.55 341.27C86.83 348.11 95.65 351.99 104.88 351.98L235.42 351.8C237.98 351.8 240.55 351.64 243.09 351.34C245.64 351.04 248.17 350.58 250.66 349.98C253.15 349.39 255.61 348.64 258.02 347.75C260.42 346.87 262.77 345.84 265.06 344.68L556.02 197.03C582.76 183.46 606.73 164.09 623.04 138.72C641.35 110.24 643.34 89.63 636.11 75.07C628.9 60.5 611.37 49.8 577.86 47.62C548.01 45.68 518.32 53.54 491.58 67.1L393.07 117.09L174.37 35.03C173.06 34.15 171.64 33.44 170.15 32.94C168.65 32.43 167.1 32.12 165.52 32.03C163.95 31.93 162.36 32.04 160.82 32.36C159.27 32.68 157.78 33.21 156.37 33.92L90.62 67.29C79.95 72.7 77.37 86.94 85.45 95.82L241.67 193.92L138.46 246.3L66.11 209.83C64.87 209.2 63.56 208.73 62.2 208.4C60.85 208.08 59.46 207.92 58.07 207.92C56.68 207.93 55.3 208.09 53.94 208.41C52.59 208.74 51.28 209.22 50.04 209.85L9.91 230.22C-0.53 235.52 -3.28 249.34 4.34 258.3L80.55 341.27Z" />
</svg>